<?xml version="1.0" encoding="UTF-8"?>
<svg width="42px" height="42px" viewBox="0 0 42 42" version="1.1" xmlns="http://www.w3.org/2000/svg" xmlns:xlink="http://www.w3.org/1999/xlink">
    <!-- Generator: Sketch 52.2 (67145) - http://www.bohemiancoding.com/sketch -->
    <title>001-analytics</title>
    <desc>Created with Sketch.</desc>
    <g id="Design" stroke="none" stroke-width="1" fill="none" fill-rule="evenodd">
        <g id="PayReg---Landing-Page---v1.0" transform="translate(-1068.000000, -1998.000000)" fill="#202020">
            <g id="001-analytics" transform="translate(1068.000000, 1998.000000)">
                <path d="M36.9140625,0 C36.7467187,0 36.5814258,0.00861328125 36.4181836,0.0245273438 C36.3552656,0.00910546875 36.2899687,0 36.222293,0 L11.484375,0 C8.58949219,0 6.234375,2.35511719 6.234375,5.25 L6.234375,8.53125 C6.234375,8.98430859 6.60171094,9.3515625 7.0546875,9.3515625 C7.50766406,9.3515625 7.875,8.98430859 7.875,8.53125 L7.875,5.25 C7.875,3.25975781 9.49413281,1.640625 11.484375,1.640625 L33.1771289,1.640625 C32.3404102,2.54739844 31.828125,3.75776953 31.828125,5.0859375 C31.828125,5.11366406 31.8296016,5.14098047 31.8323086,5.16796875 C31.8296016,5.19495703 31.828125,5.22227344 31.828125,5.25 L31.828125,10.8554414 C31.828125,11.3085 32.1954609,11.6757539 32.6484375,11.6757539 C33.1014141,11.6757539 33.46875,11.3085 33.46875,10.8554414 L33.46875,5.90625 L41.1796875,5.90625 C41.6326641,5.90625 42,5.53899609 42,5.0859375 C42,2.28153516 39.7184648,0 36.9140625,0 Z M33.5682539,4.265625 C33.9373125,2.76076172 35.2969805,1.640625 36.9141445,1.640625 C38.5313086,1.640625 39.8908945,2.76076172 40.2599531,4.265625 L33.5682539,4.265625 Z" id="Shape" fill-rule="nonzero"></path>
                <path d="M27.7154883,4.42886719 L22.5030586,4.42886719 C22.050082,4.42886719 21.6827461,4.79612109 21.6827461,5.24917969 C21.6827461,5.70223828 22.050082,6.06949219 22.5030586,6.06949219 L25.8393516,6.06949219 L16.5344648,15.3743789 L11.080043,9.91995703 C10.7596289,9.599625 10.2403711,9.59970703 9.919875,9.91995703 L2.55757031,17.2823437 C2.23723828,17.6026758 2.23723828,18.1220977 2.55757031,18.4425117 C2.71777734,18.6026367 2.92761328,18.6826992 3.13761328,18.6826992 C3.34761328,18.6826992 3.55744922,18.6026367 3.71765625,18.4424297 L10.5,11.6600859 L15.9544219,17.1145078 C16.2748359,17.4348398 16.7940937,17.4348398 17.1145898,17.1145078 L26.8951758,7.33392187 L26.8951758,10.4616094 C26.8951758,10.914668 27.2625117,11.2819219 27.7154883,11.2819219 C28.1684648,11.2819219 28.5358008,10.914668 28.5358008,10.4616094 L28.5358008,5.24917969 C28.5358008,4.79612109 28.1684648,4.42886719 27.7154883,4.42886719 Z" id="Path"></path>
                <path d="M1.40019141,19.5997266 C1.24769531,19.4471484 1.03605469,19.359375 0.8203125,19.359375 C0.604570312,19.359375 0.392929687,19.4471484 0.240351562,19.5997266 C0.0876914062,19.7523047 0,19.9639453 0,20.1796875 C0,20.3954297 0.0876914062,20.6070703 0.240351563,20.7596484 C0.393011719,20.9122266 0.604570313,21 0.8203125,21 C1.03605469,21 1.24769531,20.9122266 1.40019141,20.7596484 C1.55285156,20.6070703 1.640625,20.3954297 1.640625,20.1796875 C1.640625,19.9639453 1.55285156,19.7523047 1.40019141,19.5997266 Z" id="Path"></path>
                <path d="M37.4070703,25.7592891 C37.4071523,25.3062305 37.0398164,24.9389766 36.5868398,24.9389766 L30.3524648,24.9389766 L30.3524648,18.7046016 C30.3524648,18.251543 29.9851289,17.8842891 29.5321523,17.8842891 C25.1898281,17.8842891 21.6571523,21.4169648 21.6571523,25.7592891 C21.6571523,30.1016133 25.1898281,33.6342891 29.5321523,33.6342891 C30.3305625,33.6342891 31.1014102,33.5144414 31.828125,33.2925469 L31.828125,36.9140625 C31.828125,38.8138242 30.2825742,40.359375 28.3828125,40.359375 C26.4830508,40.359375 24.9375,38.8138242 24.9375,36.9140625 C24.9375,36.8885508 24.9359414,36.8633672 24.9337266,36.8385117 C24.9368438,36.8093906 24.9386484,36.7799414 24.9386484,36.75 C24.9386484,36.2969414 24.5713125,35.9296875 24.1183359,35.9296875 L7.875,35.9296875 L7.875,18.3773789 C7.875,17.9243203 7.50766406,17.5570664 7.0546875,17.5570664 C6.60171094,17.5570664 6.234375,17.9243203 6.234375,18.3773789 L6.234375,35.9296875 L2.625,35.9296875 C2.17202344,35.9296875 1.8046875,36.2969414 1.8046875,36.75 C1.8046875,39.6448828 4.15980469,42 7.0546875,42 L28.3828125,42 C31.1872148,42 33.46875,39.7184648 33.46875,36.9140625 L33.46875,32.647043 C33.46875,32.6243203 33.4671914,32.6020078 33.4653047,32.5796953 C35.8196836,31.2166641 37.4070703,28.6699219 37.4070703,25.7592891 Z M7.0546875,40.359375 C5.34655078,40.359375 3.91174219,39.1666406 3.53932031,37.5703125 L23.3405977,37.5703125 C23.4789844,38.6389336 23.9492695,39.6045234 24.6457969,40.359375 L7.0546875,40.359375 Z M29.5321523,31.9936641 C26.0945508,31.9936641 23.2977773,29.1969727 23.2977773,25.7592891 C23.2977773,22.5996094 25.6604414,19.981418 28.7118398,19.5786445 L28.7118398,25.7592891 C28.7118398,26.2123477 29.0791758,26.5796016 29.5321523,26.5796016 L35.7127969,26.5796016 C35.3099414,29.631 32.69175,31.9936641 29.5321523,31.9936641 Z" id="Shape" fill-rule="nonzero"></path>
                <path d="M32.3203125,13.2914414 C31.8673359,13.2914414 31.5,13.6586953 31.5,14.1117539 L31.5,22.9711289 C31.5,23.4241875 31.8673359,23.7914414 32.3203125,23.7914414 L41.1796875,23.7914414 C41.6326641,23.7914414 42,23.4241875 42,22.9711289 C42,17.6336836 37.6576758,13.2914414 32.3203125,13.2914414 Z M33.140625,22.1508164 L33.140625,14.9735742 C36.9199688,15.3582187 39.9332227,18.3713906 40.3178672,22.1508164 L33.140625,22.1508164 Z" id="Shape" fill-rule="nonzero"></path>
                <path d="M17.3085938,26.578125 L10.2539062,26.578125 C9.80092969,26.578125 9.43359375,26.9453789 9.43359375,27.3984375 C9.43359375,27.8514961 9.80092969,28.21875 10.2539062,28.21875 L17.3085938,28.21875 C17.7615703,28.21875 18.1289062,27.8514961 18.1289062,27.3984375 C18.1289062,26.9453789 17.7615703,26.578125 17.3085938,26.578125 Z" id="Path"></path>
                <path d="M21.128707,30.7559766 C20.9762109,30.6033984 20.7645703,30.515625 20.5488281,30.515625 C20.3330859,30.515625 20.1214453,30.6033984 19.9688672,30.7559766 C19.8162891,30.9085547 19.7285156,31.1201953 19.7285156,31.3359375 C19.7285156,31.5516797 19.816207,31.7633203 19.9688672,31.9158984 C20.1215273,32.0684766 20.3330859,32.15625 20.5488281,32.15625 C20.7645703,32.15625 20.9762109,32.0684766 21.128707,31.9158984 C21.2812852,31.7633203 21.3691406,31.5516797 21.3691406,31.3359375 C21.3691406,31.1201953 21.2813672,30.9085547 21.128707,30.7559766 Z" id="Path"></path>
                <path d="M17.3085938,30.515625 L10.2539062,30.515625 C9.80092969,30.515625 9.43359375,30.8828789 9.43359375,31.3359375 C9.43359375,31.7889961 9.80092969,32.15625 10.2539062,32.15625 L17.3085938,32.15625 C17.7615703,32.15625 18.1289062,31.7889961 18.1289062,31.3359375 C18.1289062,30.8828789 17.7615703,30.515625 17.3085938,30.515625 Z" id="Path"></path>
                <path d="M13.0773398,22.640625 L10.2539062,22.640625 C9.80092969,22.640625 9.43359375,23.0078789 9.43359375,23.4609375 C9.43359375,23.9139961 9.80092969,24.28125 10.2539062,24.28125 L13.0773398,24.28125 C13.5303164,24.28125 13.8976523,23.9139961 13.8976523,23.4609375 C13.8976523,23.0078789 13.5303164,22.640625 13.0773398,22.640625 Z" id="Path"></path>
            </g>
        </g>
    </g>
</svg>