<?xml version="1.0" encoding="UTF-8"?>
<svg width="60px" height="60px" viewBox="0 0 60 60" version="1.1" xmlns="http://www.w3.org/2000/svg" xmlns:xlink="http://www.w3.org/1999/xlink">
    <!-- Generator: Sketch 52.2 (67145) - http://www.bohemiancoding.com/sketch -->
    <title>Group</title>
    <desc>Created with Sketch.</desc>
    <g id="Design" stroke="none" stroke-width="1" fill="none" fill-rule="evenodd">
        <g id="PayReg---Landing-Page---v1.0" transform="translate(-555.000000, -803.000000)">
            <g id="Group-19" transform="translate(177.000000, 210.000000)">
                <g id="Google-Dark" transform="translate(378.000000, 593.000000)">
                    <g id="Group">
                        <rect id="Rectangle-2" fill="#FFFFFF" x="0" y="0" width="60" height="60" rx="3.15789474"></rect>
                        <g id="google-icon" transform="translate(14.210526, 14.210526)" fill-rule="nonzero">
                            <path d="M30.8410607,16.0848935 C30.8410607,14.7911209 30.7360787,13.8470068 30.5088791,12.8679389 L15.735235,12.8679389 L15.735235,18.7073925 L24.4070309,18.7073925 C24.232262,20.1585777 23.2881479,22.3440337 21.1900763,23.8125753 L21.1606669,24.0080755 L25.83182,27.6267577 L26.155444,27.6590599 C29.1276014,24.914102 30.8410607,20.8753716 30.8410607,16.0848935" id="Shape" fill="#4285F4"></path>
                            <path d="M15.735235,31.4704701 C19.9836882,31.4704701 23.5503013,30.0717155 26.155444,27.6590599 L21.1900763,23.8125753 C19.8613499,24.7392125 18.0779831,25.3860988 15.735235,25.3860988 C11.5741663,25.3860988 8.04250703,22.6412616 6.7835677,18.8473282 L6.59903576,18.8629972 L1.74190438,22.6219767 L1.67838489,22.7985536 C4.26593009,27.9386902 9.58095621,31.4704701 15.735235,31.4704701" id="Shape" fill="#34A853"></path>
                            <path d="M6.7835677,18.8473282 C6.4513861,17.8682603 6.25914022,16.8191643 6.25914022,15.735235 C6.25914022,14.6511852 6.4513861,13.6022097 6.7660908,12.6231418 L6.75729209,12.4146243 L1.83929289,8.59525914 L1.67838489,8.6717959 C0.611932503,10.8048212 0,13.2001205 0,15.735235 C0,18.2703495 0.611932503,20.6655283 1.67838489,22.7985536 L6.7835677,18.8473282" id="Shape" fill="#FBBC05"></path>
                            <path d="M15.735235,6.0842507 C18.6899156,6.0842507 20.6830052,7.3605464 21.8194857,8.42711933 L26.2603053,4.09116111 C23.532945,1.55604661 19.9836882,0 15.735235,0 C9.58095621,0 4.26593009,3.5316593 1.67838489,8.6717959 L6.7660908,12.6231418 C8.04250703,8.82920852 11.5741663,6.0842507 15.735235,6.0842507" id="Shape" fill="#EB4335"></path>
                        </g>
                    </g>
                </g>
            </g>
        </g>
    </g>
</svg>