<?xml version="1.0" encoding="UTF-8"?>
<svg width="51px" height="38px" viewBox="0 0 51 38" version="1.1" xmlns="http://www.w3.org/2000/svg" xmlns:xlink="http://www.w3.org/1999/xlink">
    <!-- Generator: Sketch 52.2 (67145) - http://www.bohemiancoding.com/sketch -->
    <title>Shape</title>
    <desc>Created with Sketch.</desc>
    <g id="Design" stroke="none" stroke-width="1" fill="none" fill-rule="evenodd">
        <g id="PayReg---Landing-Page---v1.0" transform="translate(-710.000000, -2006.000000)" fill="#202020" fill-rule="nonzero">
            <g id="002-group" transform="translate(710.000000, 2006.000000)">
                <path d="M43.605,13.0052031 C45.0554121,11.5939583 45.9,9.66615104 45.9,7.6 C45.9,3.40951042 42.468457,0 38.25,0 C36.8562656,0 35.485043,0.38059375 34.2830566,1.10091146 C33.881332,1.34217188 33.7518398,1.8608125 33.9941895,2.26040625 C34.2365391,2.66 34.7594883,2.78735938 35.1613125,2.54738542 C36.0984375,1.98579688 37.1659512,1.68892188 38.25,1.68892188 C41.5304355,1.68892188 44.1999668,4.34060938 44.1999668,7.6 C44.1999668,9.60717187 43.1881348,11.4572969 41.4897949,12.5515781 C40.0636875,13.4809948 38.2557773,13.748974 36.604752,13.2817917 C36.1582031,13.1539375 35.6833652,13.4129115 35.553873,13.8614896 C35.4251777,14.3100677 35.6866523,14.77725 36.1382812,14.9055 C36.8255859,15.1009427 37.5360996,15.199901 38.25,15.199901 C39.5865586,15.199901 40.8784922,14.8377135 42.0254941,14.183599 C46.3889824,15.7543646 49.2999668,19.8471823 49.2999668,24.4888229 L49.2999668,28.7110781 L41.5491621,28.7110781 C40.947123,23.070849 37.3753301,18.1352031 32.1654609,15.7915729 C33.8233594,14.114625 34.8499336,11.8195833 34.8499336,9.28892188 C34.8500332,4.1669375 30.655582,1.4062825e-15 25.5,1.4062825e-15 C20.344418,1.4062825e-15 16.1499668,4.1669375 16.1499668,9.28892188 C16.1499668,11.820375 17.1771387,14.1161094 18.8359336,15.7932552 C17.0826094,16.584625 15.4564863,17.6917708 14.0772949,19.0541302 C11.4333633,21.6883021 9.82447266,25.0692135 9.44257031,28.711276 L1.7000332,28.711276 L1.7000332,24.4890208 C1.7000332,21.5648021 2.84972461,18.807625 4.93405078,16.7282135 C6.08145117,15.5955365 7.47837305,14.7314323 8.98247461,14.188349 C10.1296758,14.8397917 11.4177246,15.2 12.75,15.2 C13.4639004,15.2 14.1744141,15.1010417 14.8617187,14.905599 C15.313248,14.777349 15.5747227,14.3101667 15.446127,13.8615885 C15.3166348,13.4130104 14.8417969,13.1544323 14.395248,13.2818906 C12.7450195,13.7498646 10.9380059,13.4822813 9.50612109,12.549599 C7.81196484,11.4572969 6.8000332,9.60727083 6.8000332,7.6 C6.8000332,4.34060938 9.46956445,1.68892187 12.75,1.68892187 C13.8340488,1.68892187 14.9015625,1.98579687 15.8386875,2.54738542 C16.2421055,2.78735937 16.7625645,2.65871354 17.0058105,2.26040625 C17.2481602,1.86091146 17.118668,1.34217187 16.7169434,1.10091146 C15.514957,0.38059375 14.1437344,1.4062825e-15 12.75,1.4062825e-15 C8.53154297,1.4062825e-15 5.1,3.40951042 5.1,7.6 C5.1,9.66456771 5.94319336,11.5908906 7.38942187,13.000849 C6.0414082,13.6233958 4.79639062,14.482849 3.73206445,15.5331927 C1.32560156,17.9345156 0,21.1148385 0,24.4889219 L0,29.5555885 C0,30.0219792 0.380208984,30.4 0.849966797,30.4 L9.34993359,30.4 L9.34993359,37.1555885 C9.34993359,37.6219792 9.73014258,38 10.1999004,38 L40.7999004,38 C41.2697578,38 41.6498672,37.6218802 41.6498672,37.1555885 L41.6498672,30.4 L50.149834,30.4 C50.6196914,30.4 50.9998008,30.0218802 50.9998008,29.5555885 L50.9998008,24.4889219 C51,19.4959792 48.0792539,15.0543333 43.605,13.0052031 Z M17.85,9.28892188 C17.85,5.09843229 21.281543,1.68892188 25.5,1.68892188 C29.718457,1.68892188 33.15,5.09843229 33.15,9.28892188 C33.15,13.4794115 29.718457,16.8889219 25.5,16.8889219 C21.281543,16.8889219 17.85,13.4793125 17.85,9.28892188 Z M39.9500332,36.3110781 L11.0499668,36.3110781 L11.0499668,30.4 C11.0499668,26.5711042 12.552375,22.9653594 15.2783848,20.2489531 C16.7144531,18.8298906 18.4554258,17.7291771 20.3220059,17.0170729 C21.8056875,18.0014115 23.5859062,18.5777448 25.5,18.5777448 C27.4172812,18.5777448 29.2005879,17.9997292 30.6856641,17.0124219 C36.2416758,19.1331979 39.9500332,24.4545833 39.9500332,30.4 L39.9500332,36.3110781 Z" id="Shape"></path>
            </g>
        </g>
    </g>
</svg>