<?xml version="1.0" encoding="UTF-8"?>
<svg width="40px" height="48px" viewBox="0 0 40 48" version="1.1" xmlns="http://www.w3.org/2000/svg" xmlns:xlink="http://www.w3.org/1999/xlink">
    <!-- Generator: Sketch 52.2 (67145) - http://www.bohemiancoding.com/sketch -->
    <title>003-checklist</title>
    <desc>Created with Sketch.</desc>
    <g id="Design" stroke="none" stroke-width="1" fill="none" fill-rule="evenodd">
        <g id="PayReg---Landing-Page---v1.0" transform="translate(-347.000000, -2007.000000)" fill="#202020">
            <g id="003-checklist" transform="translate(347.000000, 2007.000000)">
                <path d="M18.9953271,42.4000312 L1.65728972,42.4000312 L1.65728972,7.99996875 L8.03738318,7.99996875 L8.03738318,9.6 C8.03738318,10.0418437 8.39448598,10.3999688 8.83485981,10.3999688 L21.5949533,10.3999688 C22.0354206,10.3999688 22.3924299,10.04175 22.3924299,9.6 L22.3924299,7.99996875 L28.7725234,7.99996875 L28.7725234,25.5999375 C28.7725234,26.0417813 29.1296262,26.3999063 29.57,26.3999063 C30.0103738,26.3999063 30.3674766,26.0416875 30.3674766,25.5999375 L30.3674766,7.2 C30.3674766,6.75815625 30.0103738,6.40003125 29.57,6.40003125 L22.3924299,6.40003125 L22.3924299,4.8 C22.3924299,4.35815625 22.0353271,4.00003125 21.5949533,4.00003125 L19.2024299,4.00003125 C19.2025234,1.7945625 17.4135514,0 15.2149533,0 C13.0163551,0 11.2273832,1.7945625 11.2273832,4.00003125 L8.83485981,4.00003125 C8.39439252,4.00003125 8.03738318,4.35825 8.03738318,4.8 L8.03738318,6.40003125 L0.859813084,6.40003125 C0.419345794,6.40003125 0.0623364486,6.75825 0.0623364486,7.2 L0.0623364486,43.2 C0.0623364486,43.6418437 0.419439252,43.9999688 0.859813084,43.9999688 L18.9953271,43.9999688 C19.4357944,43.9999688 19.7928037,43.64175 19.7928037,43.2 C19.7928037,42.7581562 19.4357944,42.4000312 18.9953271,42.4000312 Z M15.2149533,1.60003125 C16.5342991,1.60003125 17.6074766,2.6765625 17.6074766,4.00003125 L12.8224299,4.00003125 C12.8224299,2.6765625 13.8956075,1.60003125 15.2149533,1.60003125 Z M9.63242991,5.59996875 L20.7975701,5.59996875 L20.7975701,8.7999375 L9.63242991,8.7999375 L9.63242991,5.59996875 Z" id="Shape" fill-rule="nonzero"></path>
                <path d="M29.5700935,27.1999688 C23.8531776,27.1999688 19.2025234,31.8651562 19.2025234,37.5999375 C19.2025234,43.3347187 23.8531776,48 29.5700935,48 C35.2870093,48 39.9376636,43.3348125 39.9376636,37.6000313 C39.9376636,31.86525 35.2870093,27.1999688 29.5700935,27.1999688 Z M29.5700935,46.3999687 C24.7328972,46.3999687 20.7974766,42.4523437 20.7974766,37.5999375 C20.7974766,32.747625 24.7328037,28.7999062 29.5700935,28.7999062 C34.4073832,28.7999062 38.3427103,32.7475312 38.3427103,37.5999375 C38.3427103,42.4523437 34.4072897,46.3999687 29.5700935,46.3999687 Z" id="Shape" fill-rule="nonzero"></path>
                <path d="M5.64485981,32.8000313 C5.20439252,32.8000313 4.84738318,33.15825 4.84738318,33.6 C4.84738318,34.04175 5.20448598,34.3999688 5.64485981,34.3999688 L17.4957009,34.3999688 C17.9361682,34.3999688 18.2931776,34.04175 18.2931776,33.6 C18.2931776,33.15825 17.9360748,32.8000313 17.4957009,32.8000313 L5.64485981,32.8000313 Z" id="Path"></path>
                <path d="M21.6028037,28.0000313 C21.6028037,27.5581875 21.2457009,27.2000625 20.8053271,27.2000625 L5.64485981,27.2000625 C5.20439252,27.2000625 4.84738318,27.5582813 4.84738318,28.0000313 C4.84738318,28.4417813 5.20448598,28.8 5.64485981,28.8 L20.8053271,28.8 C21.2457009,28.8 21.6028037,28.4417813 21.6028037,28.0000313 Z" id="Path"></path>
                <path d="M25.5825234,22.3999687 C25.5825234,21.958125 25.2254206,21.6 24.7850467,21.6 L5.64485981,21.6 C5.20439252,21.6 4.84738318,21.9582188 4.84738318,22.3999687 C4.84738318,22.8417187 5.20448598,23.1999375 5.64485981,23.1999375 L24.7850467,23.1999375 C25.225514,23.2000313 25.5825234,22.8418125 25.5825234,22.3999687 Z" id="Path"></path>
                <path d="M24.7850467,16.0000312 L5.64485981,16.0000312 C5.20439252,16.0000312 4.84738318,16.35825 4.84738318,16.8 C4.84738318,17.24175 5.20448598,17.5999687 5.64485981,17.5999687 L24.7850467,17.5999687 C25.225514,17.5999687 25.5825234,17.24175 25.5825234,16.8 C25.5825234,16.35825 25.225514,16.0000312 24.7850467,16.0000312 Z" id="Path"></path>
                <path d="M35.7165421,33.834375 C35.4050467,33.5219062 34.9003738,33.5219062 34.588785,33.834375 L27.9750467,40.4687812 L24.5514019,37.0343437 C24.2399065,36.721875 23.7352336,36.721875 23.4236449,37.0343437 C23.1121495,37.3468125 23.1121495,37.8530625 23.4236449,38.165625 L27.411215,42.1656562 C27.5670093,42.3219375 27.771028,42.4000312 27.9750467,42.4000312 C28.1790654,42.4000312 28.3831776,42.3219375 28.5388785,42.1656562 L35.7164486,34.9656562 C36.0280374,34.6530937 36.0280374,34.1468437 35.7165421,33.834375 Z" id="Path"></path>
            </g>
        </g>
    </g>
</svg>