<?xml version="1.0" encoding="UTF-8"?>
<svg width="116px" height="45px" viewBox="0 0 116 45" version="1.1" xmlns="http://www.w3.org/2000/svg" xmlns:xlink="http://www.w3.org/1999/xlink">
    <!-- Generator: Sketch 52.2 (67145) - http://www.bohemiancoding.com/sketch -->
    <title>payscape-logo-white-eps</title>
    <desc>Created with Sketch.</desc>
    <defs>
        <polygon id="path-1" points="0.0135088139 0.0972634602 44.7069693 0.0972634602 44.7069693 44.790724 0.0135088139 44.790724"></polygon>
    </defs>
    <g id="Design" stroke="none" stroke-width="1" fill="none" fill-rule="evenodd">
        <g id="Mobile-Copy" transform="translate(-149.000000, -32.000000)">
            <g id="payscape-logo-white-eps" transform="translate(149.000000, 32.000000)">
                <path d="M19.026455,24.2756393 C19.026455,25.3284263 19.3836194,25.7777778 20.2207571,25.7777778 L24.5502646,25.7777778 L24.5502646,22.7089947 L20.194116,22.7089947 C19.6160253,22.7216525 19.026455,22.9190653 19.026455,24.2756393" id="Fill-1" fill="#FFFFFE"></path>
                <g id="Group-5">
                    <mask id="mask-2" fill="white">
                        <use xlink:href="#path-1"></use>
                    </mask>
                    <g id="Clip-3"></g>
                    <path d="M11.1855231,17.1829861 L7.26526527,17.1829861 L7.26526527,25.5757871 L10.9725341,25.6034802 C12.2317807,25.5856935 12.7968994,25.0719083 12.7968994,23.9382937 L12.7968994,18.9695268 C12.7968994,17.7339206 12.2997751,17.1829861 11.1855231,17.1829861" id="Fill-2" fill="#FFFFFE" mask="url(#mask-2)"></path>
                    <path d="M36.5260316,33.1481527 L32.3137583,33.1816996 L32.3137583,30.3781704 L36.7743687,30.2804567 C37.8251292,30.1593276 37.9491852,29.6489196 37.9271208,29.1655292 L37.9268956,28.3730122 L34.3267967,28.3730122 C34.3267967,28.3730122 34.3258961,28.3730122 34.3252207,28.3730122 C32.7449146,28.3730122 31.573025,27.8975019 30.7910898,26.9590896 C30.0269413,26.0418412 29.6396886,24.6715971 29.6396886,22.8870828 L29.6396886,14.4006208 L32.353159,14.4006208 L32.353159,23.1631129 C32.3774749,25.3423097 33.3856827,25.5949246 34.1424014,25.5949246 L37.9268956,25.5949246 L37.9268956,14.3832845 L40.5998396,14.3832845 L40.5998396,28.2545849 C40.5998396,32.2986735 38.3843941,33.1477024 36.5260316,33.1481527 Z M20.3267123,28.3730122 C19.0699423,28.3730122 18.0948311,28.0296631 17.4283963,27.3530967 C16.7065753,26.6202435 16.3524192,25.497436 16.3749339,24.0161945 C16.3749339,21.3765723 17.8064179,19.9777346 20.5144848,19.9777346 L24.6954627,19.9777346 L24.6751995,19.185893 C24.6929861,18.4651977 24.5455149,17.949161 24.2366133,17.6321542 C23.9459487,17.3340597 23.4814706,17.1829861 22.8560125,17.1829861 L17.1303018,17.1829861 L17.1303018,14.4017465 L22.8280943,14.4343928 C25.8948202,14.5228755 27.4649947,16.2200329 27.378088,19.3434958 L27.3783132,28.3730122 L20.3267123,28.3730122 Z M15.5117207,23.8227933 C15.5117207,26.7809984 13.9568562,28.3446436 11.0148617,28.3446436 L7.26526527,28.3446436 L7.26526527,33.2109687 L4.59322188,33.2109687 L4.59322188,14.4042231 L11.262073,14.4042231 C14.0433126,14.426963 15.5117207,16.0115468 15.5117207,18.9868631 L15.5117207,23.8227933 Z M22.3534847,0.0972634602 C10.0077796,0.0972634602 0,10.1057185 0,22.4500727 C0,34.7969035 10.0077796,44.8042328 22.3534847,44.8042328 C34.6978388,44.8042328 44.7069693,34.7969035 44.7069693,22.4500727 C44.7069693,10.1057185 34.6978388,0.0972634602 22.3534847,0.0972634602 Z" id="Fill-4" fill="#FFFFFE" mask="url(#mask-2)"></path>
                </g>
                <path d="M52.8785022,20.4164667 L50.0728544,20.4164667 C49.0118348,20.4164667 48.5388187,19.9593982 48.5388187,18.9338593 C48.5388187,17.9603539 48.9077364,17.5450038 49.7721016,17.5450038 L56.3793007,17.5450038 L56.3793007,14.7301587 L50.0005518,14.7301587 C47.4464389,14.7973207 46.074213,16.2645702 46.031746,18.9799329 C46.031746,21.7610824 47.4109409,23.2310825 50.0201519,23.2310825 L52.9457959,23.2310825 C54.3439376,23.2310825 54.5482143,23.9542776 54.5695567,24.5566728 C54.547561,25.2438801 54.3334842,26.0324035 52.8593376,26.0324035 L46.4614241,26.0324035 L46.4614241,28.8465608 L52.9187913,28.8465608 C55.6175096,28.8465608 57.0555048,27.3472203 57.0772827,24.5179343 C57.1079895,23.2473572 56.798961,22.2525342 56.1593439,21.5618885 C55.4554819,20.8017887 54.3515598,20.4164667 52.8785022,20.4164667" id="Fill-6" fill="#FFFFFE"></path>
                <path d="M61.423455,16.0342022 C60.5808416,16.8878246 60.1595348,18.1572555 60.1706938,19.8023812 L60.1481481,23.8648811 C60.1481481,27.1239582 61.923102,28.8465608 65.2812583,28.8465608 L69.3544974,28.8465608 L69.3544974,26.0324035 L65.0277911,26.0326327 C64.2648843,26.0326327 63.7053434,25.8568195 63.364882,25.5097775 C63.0490158,25.1879499 62.8932462,24.6871001 62.9012169,24.0154799 L62.9012169,19.7159645 C62.9012169,18.214561 63.529761,17.5450038 64.9385196,17.5450038 L69.3544974,17.5450038 L69.3544974,14.7301587 L65.2496034,14.7301587 C63.5643764,14.7301587 62.2769997,15.1688895 61.423455,16.0342022" id="Fill-7" fill="#FFFFFE"></path>
                <path d="M78.92277,23.1853778 L78.92277,26.0328147 L74.4205508,26.0328147 C73.5504914,26.0328147 73.1788002,25.6166085 73.1788002,24.6409534 C73.1788002,23.3801879 73.791899,23.1968372 74.3928261,23.1853778 L78.92277,23.1853778 Z M77.0325322,14.7622451 L71.3018612,14.7301587 L71.3018612,17.5466552 L77.0607077,17.5466552 C77.6943183,17.5466552 78.1640602,17.7011282 78.4566346,18.0064071 C78.7638602,18.3270417 78.9105982,18.8463827 78.8925659,19.5715348 L78.9126268,20.3716316 L74.7284526,20.3716316 C72.0166172,20.3716316 70.5830479,21.7834322 70.5830479,24.448206 C70.5602821,25.935868 70.9123631,27.0655377 71.6289224,27.8058162 C72.297696,28.4963609 73.2797812,28.8465608 74.5483548,28.8465608 L81.6262655,28.8465608 L81.6262655,19.7250911 C81.7128206,16.5675623 80.1277797,14.8513994 77.0325322,14.7622451 Z" id="Fill-8" fill="#FFFFFE"></path>
                <path d="M87.4132292,17.4539897 L91.3781473,17.4539897 C92.5064533,17.4539897 93.0090294,17.9921016 93.0090294,19.1994153 L93.0090294,24.0581709 C93.0090294,25.1645609 92.4376321,25.6658523 91.1630809,25.6829317 L87.4132292,25.6567581 L87.4132292,17.4539897 Z M91.4471949,14.7301587 L84.6984127,14.7301587 L84.6984127,33.1428571 L87.4132292,33.1428571 L87.4132292,28.3797018 L91.2033776,28.3797018 C94.1751418,28.3797018 95.7460317,26.8487668 95.7460317,23.9517019 L95.7460317,19.2182692 C95.7460317,16.3027941 94.2604892,14.7510089 91.4471949,14.7301587 Z" id="Fill-9" fill="#FFFFFE"></path>
                <path d="M107.25411,20.3703931 L101.532064,20.3703931 L101.555109,19.1392422 C101.529579,18.5840667 101.636668,18.1751348 101.874117,17.9232199 C102.109985,17.6722219 102.50513,17.5450038 103.049388,17.5450038 L105.922724,17.5450038 C106.355148,17.5450038 106.666023,17.6492998 106.873875,17.8631638 C107.119684,18.1166832 107.239425,18.5501419 107.230162,19.1658319 L107.25411,20.3703931 Z M109.862434,23.1845504 L109.862434,19.0805614 C109.862434,16.2542552 108.48767,14.7601868 105.889739,14.7601868 L103.12914,14.7301587 C100.307089,14.7517056 98.8150694,16.2893262 98.8150694,19.1768346 L98.8150694,24.4892816 C98.803999,25.9003716 99.1539595,26.9882588 99.8561397,27.7219982 C100.559224,28.457342 101.61272,28.8355582 102.990195,28.8465608 L109.410806,28.8465608 L109.410806,26.0324035 L102.958565,26.0324035 C101.962003,26.0324035 101.510375,25.5292614 101.494108,24.4138675 L101.516701,23.1845504 L109.862434,23.1845504 Z" id="Fill-10" fill="#FFFFFE"></path>
                <path d="M114.161254,12.8888889 C114.470236,12.8888889 114.771225,12.9675855 115.065062,13.127083 C115.360583,13.2846867 115.589637,13.5117286 115.753277,13.8079983 C115.917759,14.1032159 116,14.4114794 116,14.7315265 C116,15.0490484 115.919231,15.3543661 115.757274,15.6470587 C115.595737,15.9393305 115.369206,16.1667932 115.076631,16.3290261 C114.784476,16.4914694 114.47886,16.5714286 114.161254,16.5714286 C113.842387,16.5714286 113.53635,16.4914694 113.244826,16.3290261 C112.951619,16.1667932 112.724458,15.9393305 112.56208,15.6470587 C112.400543,15.3543661 112.31746,15.0490484 112.31746,14.7315265 C112.31746,14.4114794 112.400543,14.1032159 112.566286,13.8079983 C112.731609,13.5117286 112.960874,13.2846867 113.256184,13.127083 C113.549391,12.9675855 113.851011,12.8888889 114.161254,12.8888889 Z M114.161254,13.194417 C113.902753,13.194417 113.650141,13.2594364 113.405732,13.3930524 C113.160271,13.5258266 112.969498,13.715414 112.830256,13.9613936 C112.692697,14.2075836 112.623918,14.4640841 112.623918,14.7315265 C112.623918,14.9968646 112.691015,15.2512609 112.827522,15.4942947 C112.962977,15.7375388 113.152699,15.9273366 113.397108,16.0628463 C113.640465,16.1994081 113.89497,16.2669525 114.161254,16.2669525 C114.425645,16.2669525 114.68036,16.1994081 114.924138,16.0628463 C115.168757,15.9273366 115.357848,15.7375388 115.492673,15.4942947 C115.627708,15.2512609 115.694804,14.9968646 115.694804,14.7315265 C115.694804,14.4640841 115.627077,14.2075836 115.489097,13.9613936 C115.351748,13.715414 115.159923,13.5258266 114.915094,13.3930524 C114.669002,13.2594364 114.417021,13.194417 114.161254,13.194417 Z M113.353148,15.7484806 L113.353148,13.7667562 L114.033371,13.7667562 C114.265791,13.7667562 114.434269,13.7850626 114.539015,13.8220963 C114.643552,13.8593405 114.726003,13.9222557 114.787841,14.0131566 C114.850521,14.1044784 114.880388,14.2016919 114.880388,14.3039554 C114.880388,14.4493548 114.828856,14.5753957 114.724741,14.682078 C114.621466,14.7902333 114.484749,14.8504131 114.314588,14.8619861 C114.38505,14.8927073 114.440368,14.9263743 114.482435,14.9680372 C114.562152,15.0465234 114.659747,15.1771935 114.775642,15.3610995 L115.016896,15.7484806 L114.625673,15.7484806 L114.450675,15.4366399 C114.313116,15.1912916 114.201428,15.0378962 114.116663,14.9756123 C114.05777,14.9295306 113.973215,14.9065949 113.860265,14.9065949 L113.672436,14.9065949 L113.672436,15.7484806 L113.353148,15.7484806 Z M113.672436,14.6341025 L114.060504,14.6341025 C114.245598,14.6341025 114.371379,14.6063273 114.439737,14.5507767 C114.507465,14.4950157 114.54175,14.4209483 114.54175,14.3306786 C114.54175,14.2721822 114.525554,14.2199983 114.492321,14.1737062 C114.460981,14.1276245 114.415338,14.0924845 114.356865,14.0695489 C114.299865,14.0468236 114.192594,14.0356714 114.035895,14.0356714 L113.672436,14.0356714 L113.672436,14.6341025 Z" id="Fill-11" fill="#FFFFFE"></path>
            </g>
        </g>
    </g>
</svg>