<?xml version="1.0" encoding="UTF-8"?>
<svg width="104px" height="40px" viewBox="0 0 104 40" version="1.1" xmlns="http://www.w3.org/2000/svg" xmlns:xlink="http://www.w3.org/1999/xlink">
    <!-- Generator: Sketch 52.2 (67145) - http://www.bohemiancoding.com/sketch -->
    <title>payscape-logo-color-2</title>
    <desc>Created with Sketch.</desc>
    <g id="Design" stroke="none" stroke-width="1" fill="none" fill-rule="evenodd">
        <g id="Mobile-Copy" transform="translate(-44.000000, -13.000000)" fill-rule="nonzero">
            <g id="payscape-logo-color-2" transform="translate(44.000000, 13.000000)">
                <path d="M20,0 C8.95430497,0 0,8.95430502 0,20 C0,31.045695 8.95430497,40 20,40 C31.0456949,40 40,31.045695 40,20 C40,14.6956702 37.8928632,9.60859193 34.1421356,5.85786438 C30.391408,2.10713681 25.3043298,0 20,0 Z" id="Shape" fill="#D4451D"></path>
                <path d="M10.1055017,13 L4,13 L4,30 L6.44797032,30 L6.44797032,25.5958338 L9.8788378,25.5958338 C12.5720173,25.5958338 14,24.1834072 14,21.5091584 L14,17.1375554 C13.9938182,14.4470251 12.6544405,13.0162816 10.1055017,13 Z M6.44797032,15.5073627 L10.035442,15.5073627 C11.0554296,15.5073627 11.5108181,16.0059859 11.5108181,17.123309 L11.5108181,21.6149886 C11.5108181,22.6325871 10.9936122,23.1047528 9.84174737,23.1210344 L6.44797032,23.096612 L6.44797032,15.5073627 Z" id="Shape" fill="#FFFFFF"></path>
                <path d="M20.8651032,13.0212801 L15.6881758,13 L15.6881758,15.3833629 L20.8896481,15.3833629 C21.4582714,15.3833629 21.8796254,15.5129776 22.143483,15.7702725 C22.4073407,16.0275673 22.5525646,16.4860552 22.5423376,17.1051105 L22.5607463,17.7860713 L18.7624238,17.7860713 C16.3079344,17.7860713 15.0009188,18.9874254 15.0009188,21.25665 C14.9804647,22.5295825 15.3015938,23.4949219 15.9581697,24.1236498 C16.571792,24.7040142 17.449272,25 18.5906096,25 L24.996827,25 L24.996827,17.2385943 C25.076598,14.5476383 23.6509487,13.0967274 20.8651032,13.0212801 Z M22.5709733,20.1791069 L22.5709733,22.6185717 L18.4801575,22.6185717 C17.6906302,22.6185717 17.3531379,22.2606804 17.3531379,21.4249557 C17.3531379,20.3474126 17.9094888,20.1907142 18.4556127,20.1791069 L22.5709733,20.1791069 Z" id="Shape" fill="#FFFFFF"></path>
                <path d="M34.5616269,13 L34.5616269,23.1364942 L31.1084634,23.1364942 C30.4182416,23.1364942 29.4979458,22.9085249 29.4753492,20.9382184 L29.4753492,13.0244253 L27,13.0244253 L27,20.696001 C27,22.3101054 27.3533279,23.5456178 28.0497124,24.378113 C28.746097,25.2106082 29.8245686,25.6441571 31.2748562,25.6441571 L34.5616269,25.6441571 L34.5616269,26.3606322 C34.5821693,26.7982519 34.4691866,27.2582615 33.5098603,27.3783525 L29.4404273,27.4658764 L29.4404273,30 L33.2838948,29.9694684 C34.978636,29.9694684 37,29.2021073 37,25.546456 L37,13 L34.5616269,13 Z" id="Shape" fill="#FFFFFF"></path>
                <path d="M47.1968366,17.8339016 L44.6573758,17.8339016 C43.6971914,17.8339016 43.277234,17.444228 43.277234,16.5733074 C43.277234,15.7452509 43.6104396,15.3925963 44.3931771,15.3925963 L50.3672195,15.3925963 L50.3672195,13 L44.5923119,13 C42.2795886,13.0565027 41.0433759,14.3034584 41,16.6122747 C41,18.9756455 42.2480425,20.2264978 44.6100566,20.2264978 L47.2579572,20.2264978 C48.5237444,20.2264978 48.7090777,20.8402338 48.728794,21.3526547 C48.7090777,21.9371651 48.5158579,22.6074038 47.1810635,22.6074038 L41.3884113,22.6074038 L41.3884113,25 L47.2342976,25 C49.6771486,25 50.9803967,23.7257671 50.9981414,21.3214808 C51.0257442,20.2420848 50.7457726,19.3964929 50.1661131,18.8080857 C49.5312479,18.1553824 48.5316308,17.8339016 47.1968366,17.8339016 Z" id="Shape" fill="#8A8A8D"></path>
                <path d="M55.1069929,14.1088016 C54.3755869,14.8337122 54.0098838,15.9132836 54.0197678,17.3124391 L54,20.7655083 C54,23.5365379 55.5399061,25 58.4556462,25 L61.9920929,25 L61.9920929,22.608964 L58.2362244,22.608964 C57.5740055,22.608964 57.0877194,22.4589152 56.7931801,22.1646639 C56.498641,21.8704125 56.3839881,21.465086 56.3978255,20.8941215 L56.3978255,17.2383892 C56.3978255,15.9620007 56.9434149,15.3929848 58.1670373,15.3929848 L62,15.3929848 L62,13 L58.4418088,13 C56.9651594,13 55.8482827,13.3741474 55.1069929,14.1088016 Z" id="Shape" fill="#8A8A8D"></path>
                <path d="M69.8330762,13.0272772 L64.6512035,13 L64.6512035,15.3945446 L69.8595767,15.3945446 C70.4323959,15.3945446 70.8584429,15.5250852 71.1214097,15.7842182 C71.3843764,16.0433512 71.5291101,16.4992694 71.5148406,17.1149537 L71.5331872,17.7949342 L67.7497269,17.7949342 C65.3035242,17.7949342 64.0009212,18.9951291 64.0009212,21.2610814 C63.9805362,22.5255723 64.2985426,23.4861179 64.9467863,24.1154408 C65.558337,24.6999513 66.4410085,25 67.5968392,25 L73.9977363,25 L73.9977363,17.2474428 C74.065007,14.5625913 72.6319398,13.1032635 69.8330762,13.0272772 Z M71.5433796,20.1875304 L71.5433796,22.6074038 L67.4663751,22.6074038 C66.6795133,22.6074038 66.3431604,22.2528008 66.3431604,21.4247442 C66.3431604,20.3531418 66.897633,20.1972723 67.4398745,20.1875304 L71.5433796,20.1875304 Z" id="Shape" fill="#8A8A8D"></path>
                <path d="M82.109404,13 L76,13 L76,30 L78.4585126,30 L78.4585126,25.6045783 L81.8881378,25.6045783 C84.5781604,25.6045783 86,24.1913253 86,21.5081928 L86,17.1455422 C85.9979513,14.4521687 84.6539644,13.020482 82.109404,13 Z M78.4585126,15.5151808 L82.0479412,15.5151808 C83.0723214,15.5151808 83.5230487,16.0128916 83.5230487,17.1271085 L83.5230487,21.6146989 C83.5230487,22.6387952 83.0067611,23.0996386 81.8533089,23.1160241 L78.4605614,23.0914458 L78.4585126,15.5151808 Z" id="Shape" fill="#8A8A8D"></path>
                <path d="M98,20.1875305 L98,16.698003 C98,14.2956649 96.7543464,13.0253289 94.4041726,13.0253289 L91.9046841,13 C89.3499691,13.0175353 88,14.3248904 88,16.7798344 L88,21.296152 C88,22.4963468 88.3068105,23.4198733 88.9429328,24.0433512 C89.5790552,24.666829 90.53426,24.9902582 91.7799144,25 L97.5909184,25 L97.5909184,22.6074038 L91.7492327,22.6074038 C90.8472082,22.6074038 90.4381258,22.1787628 90.4238085,21.2318558 L90.4442627,20.1875305 L98,20.1875305 Z M95.6375541,17.7949343 L90.45858,17.7949343 L90.4790342,16.7486605 C90.4565347,16.2771554 90.5526689,15.9283975 90.7674368,15.714077 C90.9822046,15.4997564 91.3381058,15.3925963 91.8310495,15.3925963 L94.4328081,15.3925963 C94.7466517,15.3668826 95.0578533,15.4647561 95.293925,15.6634194 C95.5168751,15.8796883 95.6252813,16.2479299 95.6170999,16.7700925 L95.6375541,17.7949343 Z" id="Shape" fill="#8A8A8D"></path>
                <path d="M102.103886,13.4210076 L102.411828,13.4210076 C102.519114,13.4311099 102.626852,13.4071215 102.71977,13.3524426 C102.771516,13.3106154 102.801682,13.2476443 102.801889,13.1810304 C102.802881,13.135057 102.789085,13.0899835 102.762541,13.0524712 C102.735353,13.0140316 102.697179,12.9847479 102.65305,12.9684792 C102.567855,12.9452079 102.479455,12.9359455 102.391299,12.9410532 L102.103886,12.9410532 L102.103886,13.4210076 Z M101.843846,14.3294925 L101.843846,12.7147891 L102.396431,12.7147891 C102.534765,12.7084816 102.673244,12.7235128 102.807021,12.7593563 C102.889601,12.7876951 102.960553,12.8425193 103.008895,12.9153415 C103.057803,12.9844913 103.084102,13.0671374 103.08417,13.1518903 C103.085691,13.2677248 103.039966,13.3791644 102.95757,13.4604324 C102.867374,13.5528434 102.744401,13.6058245 102.615412,13.6078469 C102.665921,13.6277094 102.712324,13.6567676 102.752276,13.693553 C102.842735,13.7915885 102.922456,13.8990481 102.990076,14.0140939 L103.186817,14.3294925 L102.86861,14.3294925 L102.726614,14.0758024 C102.66148,13.9386039 102.572894,13.8138787 102.464863,13.707266 C102.403543,13.6655966 102.33007,13.6456842 102.256146,13.6507 L102.103886,13.6507 L102.103886,14.336349 L101.843846,14.3294925 Z M102.50079,12.2485478 C102.285738,12.2491919 102.074386,12.3046399 101.886615,12.4096753 C101.689278,12.5156835 101.526551,12.6763464 101.417858,12.8724884 C101.307312,13.06313 101.248341,13.2793803 101.246779,13.4998572 C101.248441,13.7186977 101.307435,13.9332633 101.417858,14.1220837 C101.525322,14.3173959 101.686154,14.4779468 101.881483,14.5848968 C102.265958,14.8064921 102.739043,14.8064921 103.123518,14.5848968 C103.318387,14.4779172 103.47866,14.317333 103.585431,14.1220837 C103.807163,13.7351754 103.807163,13.2593966 103.585431,12.8724884 C103.477668,12.6762295 103.315441,12.5154729 103.118385,12.4096753 C102.931037,12.3051296 102.720363,12.2497053 102.505922,12.2485478 L102.50079,12.2485478 Z M102.505922,12 C102.763551,12.001095 103.01668,12.0677446 103.241562,12.1936959 C103.478682,12.31941 103.673341,12.5126584 103.800991,12.7490716 C104.066336,13.2130674 104.066336,13.7832187 103.800991,14.2472146 C103.673113,14.4816997 103.480724,14.674463 103.246695,14.8025903 C102.78473,15.0658032 102.218559,15.0658032 101.756595,14.8025903 C101.522166,14.6744141 101.329237,14.4817041 101.200588,14.2472146 C100.933137,13.7837824 100.933137,13.2125037 101.200588,12.7490716 C101.329187,12.5127847 101.52434,12.3196372 101.761728,12.1936959 C101.986609,12.0677446 102.239739,12.001095 102.497368,12 L102.505922,12 Z" id="Shape" fill="#A7A9AC"></path>
            </g>
        </g>
    </g>
</svg>