<?xml version="1.0" encoding="UTF-8"?>
<svg width="430px" height="403px" viewBox="0 0 430 403" version="1.1" xmlns="http://www.w3.org/2000/svg" xmlns:xlink="http://www.w3.org/1999/xlink">
    <!-- Generator: Sketch 52.2 (67145) - http://www.bohemiancoding.com/sketch -->
    <title>“ copy</title>
    <desc>Created with Sketch.</desc>
    <g id="Design" stroke="none" stroke-width="1" fill="none" fill-rule="evenodd" opacity="0.1">
        <path d="M46.8082192,403 C15.6025837,351.847086 0,300.234108 0,248.15952 C0,202.075813 11.5872129,157.951326 34.7619863,115.784734 C57.9367597,73.6181425 91.5511496,35.0236171 135.606164,0 L188.609589,32.4888508 C193.198653,35.2538732 196.41095,38.5948918 198.246575,42.5120069 C200.082201,46.4291219 201,50.2309707 201,53.9176672 C201,58.0652008 200.082201,61.9822572 198.246575,65.6689537 C196.41095,69.3556502 194.345902,72.5814613 192.05137,75.3464837 C186.085587,82.2590397 179.775718,90.3235674 173.121575,99.5403087 C166.467432,108.75705 160.387014,118.780106 154.880137,129.609777 C149.37326,140.439448 144.784265,152.305825 141.113014,165.209262 C137.441762,178.1127 135.606164,191.937605 135.606164,206.684391 C135.606164,222.352851 138.130112,239.057944 143.178082,256.800172 C148.226053,274.542399 156.715694,293.090812 168.64726,312.445969 C172.777418,318.897688 174.842466,325.34931 174.842466,331.801029 C174.842466,346.547815 166.582274,356.916494 150.061644,362.907376 L46.8082192,403 Z M275.808219,403 C244.602584,351.847086 229,300.234108 229,248.15952 C229,202.075813 240.587213,157.951326 263.761986,115.784734 C286.93676,73.6181425 320.55115,35.0236171 364.606164,0 L417.609589,32.4888508 C422.198653,35.2538732 425.41095,38.5948918 427.246575,42.5120069 C429.082201,46.4291219 430,50.2309707 430,53.9176672 C430,58.0652008 429.082201,61.9822572 427.246575,65.6689537 C425.41095,69.3556502 423.345902,72.5814613 421.05137,75.3464837 C415.085587,82.2590397 408.775718,90.3235674 402.121575,99.5403087 C395.467432,108.75705 389.387014,118.780106 383.880137,129.609777 C378.37326,140.439448 373.784265,152.305825 370.113014,165.209262 C366.441762,178.1127 364.606164,191.937605 364.606164,206.684391 C364.606164,222.352851 367.130112,239.057944 372.178082,256.800172 C377.226053,274.542399 385.715694,293.090812 397.64726,312.445969 C401.777418,318.897688 403.842466,325.34931 403.842466,331.801029 C403.842466,346.547815 395.582274,356.916494 379.061644,362.907376 L275.808219,403 Z" id="“-copy" fill="#FFFFFF"></path>
    </g>
</svg>